<?xml version="1.0" encoding="UTF-8"?>
<svg id="Layer_1" xmlns="http://www.w3.org/2000/svg" version="1.1" viewBox="0 0 384 384">
  <!-- Generator: Adobe Illustrator 29.5.1, SVG Export Plug-In . SVG Version: 2.1.0 Build 141)  -->
  <defs>
    <style>
      .st0 {
        fill: #7c7c7c;
      }
    </style>
  </defs>
  <path class="st0" d="M336,275.4c43.9,14.6,41.7,80.7-3.7,91.4-55.6,13.1-82.4-59.5-38.6-86.6,2.3-1.5,9.6-3.8,10-5.7V99.7c-8.3-71.1-91.6-68.1-95.9,5.2-3.5,60,2.7,123.4,0,183.8-12.4,108.2-151.5,104.3-159.5-3.7V109.6c-15.1-6.3-26.5-16.9-30.4-33.3C8.4,36.8,45.7,5,83.1,19.9c35.2,14.1,39.5,64.7,7.5,84.5-2.2,1.4-8,3.3-9.2,4.3s-.8,1.3-.8,2.2v174.8c8.9,70.2,91.3,66.9,95.9-5.2,3.8-59.8-2.9-123.6,0-183.8,11.4-108.1,150.5-105.8,159.5,2.2v176.5ZM48.6,67.2c2.7,19.1,32.7,16.7,31.9-3.4-.8-21.9-35.4-20.5-31.9,3.4ZM303.8,322.2c2.1,20.2,34.5,18.7,31.9-4.2s-34.2-17.5-31.9,4.2Z"/>
</svg>